<svg xmlns="http://www.w3.org/2000/svg" viewBox="0 0 512 512" role="img" aria-labelledby="title desc">
  <title id="title">Big Red Button VPN launcher icon</title>
  <desc id="desc">A retro cream badge with a red button, lock, and VPN tunnel links.</desc>
  <defs>
    <radialGradient id="red" cx="248" cy="205" r="224" gradientUnits="userSpaceOnUse">
      <stop offset="0" stop-color="#ff8277"/>
      <stop offset=".5" stop-color="#df2630"/>
      <stop offset="1" stop-color="#82121c"/>
    </radialGradient>
    <linearGradient id="navy" x1="80" x2="432" y1="72" y2="430" gradientUnits="userSpaceOnUse">
      <stop offset="0" stop-color="#253d65"/>
      <stop offset="1" stop-color="#101827"/>
    </linearGradient>
    <linearGradient id="gold" x1="205" x2="323" y1="203" y2="326" gradientUnits="userSpaceOnUse">
      <stop offset="0" stop-color="#fff8d5"/>
      <stop offset="1" stop-color="#dcae5c"/>
    </linearGradient>
  </defs>
  <rect width="512" height="512" rx="112" fill="#f9ecd0"/>
  <circle cx="256" cy="256" r="213" fill="#fff2c6"/>
  <circle cx="256" cy="256" r="188" fill="url(#navy)" stroke="#0f7890" stroke-width="13"/>
  <path d="M256 78 312 188 433 206 345 292 366 412 256 354 146 412 167 292 79 206 200 188Z" fill="#fff2c6" opacity=".12"/>
  <path d="M111 185c87-56 203-56 290 0M111 326c87 56 203 56 290 0" fill="none" stroke="#82dcf8" stroke-width="14" stroke-linecap="round"/>
  <path d="M104 256h80c35 0 46-34 80-34h145" fill="none" stroke="#82dcf8" stroke-width="12" stroke-linecap="round" opacity=".65"/>
  <circle cx="103" cy="256" r="18" fill="#bdf6ff" stroke="#0b1a30" stroke-width="7"/>
  <circle cx="409" cy="256" r="18" fill="#bdf6ff" stroke="#0b1a30" stroke-width="7"/>
  <circle cx="111" cy="185" r="15" fill="#bdf6ff" stroke="#0b1a30" stroke-width="6"/>
  <circle cx="401" cy="185" r="15" fill="#bdf6ff" stroke="#0b1a30" stroke-width="6"/>
  <circle cx="111" cy="326" r="15" fill="#bdf6ff" stroke="#0b1a30" stroke-width="6"/>
  <circle cx="401" cy="326" r="15" fill="#bdf6ff" stroke="#0b1a30" stroke-width="6"/>
  <ellipse cx="256" cy="349" rx="137" ry="53" fill="#681019"/>
  <circle cx="256" cy="260" r="116" fill="url(#red)" stroke="#5f0b15" stroke-width="13"/>
  <path d="M181 235c21-63 79-94 144-66-20-34-68-51-113-33-41 17-65 56-64 98 2 15 7 29 14 42 4-14 10-28 19-41Z" fill="#ffaaa1" opacity=".62"/>
  <path d="M217 252v-27c0-31 24-55 55-55s55 24 55 55v27h-27v-27c0-16-12-28-28-28s-28 12-28 28v27h-27Z" fill="none" stroke="url(#gold)" stroke-width="21" stroke-linecap="round" stroke-linejoin="round"/>
  <rect x="198" y="241" width="116" height="91" rx="18" fill="url(#gold)"/>
  <circle cx="256" cy="287" r="13" fill="#67121a"/>
  <path d="M256 301v22" stroke="#67121a" stroke-width="11" stroke-linecap="round"/>
</svg>
