<svg xmlns="http://www.w3.org/2000/svg" viewBox="0 0 850 320" role="img" aria-labelledby="title desc">
  <title id="title">Big Red Button wordmark</title>
  <desc id="desc">A retro VPN launcher wordmark with a red button badge and mid-century lettering.</desc>
  <defs>
    <radialGradient id="red" cx="120" cy="96" r="108" gradientUnits="userSpaceOnUse">
      <stop offset="0" stop-color="#ff8277"/>
      <stop offset=".5" stop-color="#df2630"/>
      <stop offset="1" stop-color="#82121c"/>
    </radialGradient>
    <linearGradient id="navy" x1="32" x2="236" y1="28" y2="238" gradientUnits="userSpaceOnUse">
      <stop offset="0" stop-color="#253d65"/>
      <stop offset="1" stop-color="#101827"/>
    </linearGradient>
    <linearGradient id="gold" x1="94" x2="156" y1="95" y2="158" gradientUnits="userSpaceOnUse">
      <stop offset="0" stop-color="#fff8d5"/>
      <stop offset="1" stop-color="#dcae5c"/>
    </linearGradient>
    <style>
      .script {
        font-family: "Brush Script MT", "Brush Script", "Savoye LET", "Apple Chancery", cursive;
        font-size: 118px;
        font-weight: 700;
        letter-spacing: 0;
      }
      .block {
        font-family: "Phosphate", "Cooper Black", "Rockwell Extra Bold", Georgia, serif;
        font-size: 100px;
        font-weight: 900;
        letter-spacing: 7px;
      }
    </style>
  </defs>
  <rect width="850" height="320" fill="#f9ecd0"/>
  <g transform="translate(54 34)">
    <circle cx="126" cy="126" r="118" fill="#fff2c6"/>
    <circle cx="126" cy="126" r="104" fill="url(#navy)" stroke="#0f7890" stroke-width="8"/>
    <path d="M126 27 157 88 224 98 175 146 187 213 126 181 65 213 77 146 28 98 95 88Z" fill="#fff2c6" opacity=".12"/>
    <path d="M53 90c44-29 102-29 146 0M53 162c44 29 102 29 146 0" fill="none" stroke="#82dcf8" stroke-width="8" stroke-linecap="round"/>
    <path d="M50 126h40c18 0 23-17 40-17h72" fill="none" stroke="#82dcf8" stroke-width="7" stroke-linecap="round" opacity=".65"/>
    <circle cx="49" cy="126" r="10" fill="#bdf6ff" stroke="#0b1a30" stroke-width="4"/>
    <circle cx="203" cy="126" r="10" fill="#bdf6ff" stroke="#0b1a30" stroke-width="4"/>
    <ellipse cx="126" cy="172" rx="69" ry="27" fill="#681019"/>
    <circle cx="126" cy="127" r="59" fill="url(#red)" stroke="#5f0b15" stroke-width="7"/>
    <path d="M88 114c11-32 40-48 73-34-10-17-34-26-57-16-20 9-33 28-32 49 1 8 3 15 7 22 2-7 5-14 9-21Z" fill="#ffaaa1" opacity=".62"/>
    <path d="M106 123v-14c0-15 12-27 27-27s27 12 27 27v14h-13v-14c0-8-6-14-14-14s-14 6-14 14v14h-13Z" fill="none" stroke="url(#gold)" stroke-width="11" stroke-linecap="round" stroke-linejoin="round"/>
    <rect x="96" y="118" width="58" height="45" rx="9" fill="url(#gold)"/>
  </g>
  <g transform="translate(320 26)">
    <text class="script" x="4" y="98" fill="#0d5364" stroke="#0d5364" stroke-width="10" paint-order="stroke fill">Big Red</text>
    <text class="script" x="0" y="87" fill="#e02c32" stroke="#fff2c6" stroke-width="13" paint-order="stroke fill">Big Red</text>
    <rect x="36" y="138" width="455" height="10" rx="5" fill="#7dd3fc"/>
    <circle cx="36" cy="143" r="15" fill="#bdf6ff" stroke="#12213a" stroke-width="6"/>
    <circle cx="491" cy="143" r="15" fill="#bdf6ff" stroke="#12213a" stroke-width="6"/>
    <text class="block" x="8" y="268" fill="#172033" stroke="#fff2c6" stroke-width="8" paint-order="stroke fill">BUTTON</text>
  </g>
</svg>
